<svg xmlns="http://www.w3.org/2000/svg" width="234" height="72" viewBox="0 0 234 72" fill="none">
<path d="M114.62 69.1617C114.834 69.2906 114.92 69.5912 114.92 69.763C114.92 70.6648 111.184 71.9961 109.38 71.9961C108.006 71.9961 107.534 69.2906 106.245 69.8488C104.399 70.6648 101.35 71.9961 99.8896 71.9961C95.1656 71.9961 91 68.3458 91 62.0758C91 56.2783 94.6074 50.5666 101.521 50.5666C105.301 50.5666 106.331 52.628 106.331 49.8366V46.1433C106.331 43.0513 106.074 42.4501 101.822 41.9347C101.521 41.8918 101.607 40.7752 101.908 40.7323L111.098 39.0145C111.485 38.9286 111.828 39.2292 111.699 39.7875C111.399 41.1617 110.926 43.7384 110.926 47.6464V66.628C110.926 70.2783 114.018 68.7752 114.62 69.1617ZM106.331 66.6709V56.3212C105.429 54.7323 103.755 53.1433 101.006 53.1433C97.3558 53.1433 95.638 55.6771 95.638 60.0145C95.638 65.6403 98.6871 69.2906 101.951 69.2906C103.368 69.2906 106.331 67.7016 106.331 66.6709ZM135.061 68.0022C135.448 67.9163 135.791 69.0758 135.534 69.2047C133.859 70.0206 130.38 71.9961 129.564 71.9961C124.282 71.9961 117.497 69.5053 117.497 61.9041C117.497 56.7936 120.632 50.5666 128.319 50.5666C134.804 50.5666 135.62 55.2047 135.62 57.0084C135.62 58.1249 135.276 59.7998 134.847 60.7875L122.092 61.1311C122.908 66.4562 127.245 68.6893 130.638 68.6893C131.025 68.6893 132.871 68.4746 135.061 68.0022ZM126.816 53.3151C123.423 53.3151 122.092 55.6341 121.963 58.8979L131.282 58.5973C131.712 56.2783 130.595 53.3151 126.816 53.3151ZM151.209 71.9961C146.528 71.9961 139.699 69.2047 139.699 61.7752C139.699 56.7936 142.834 50.5666 151.209 50.5666C153.785 50.5666 157.178 51.3826 156.834 52.6709L156.448 54.174C155.46 58.082 153.399 53.401 148.975 53.401C145.84 53.401 144.337 55.9347 144.337 59.3703C144.337 65.4255 149.405 68.6893 152.497 68.6893C152.926 68.6893 154.301 68.4317 156.319 67.9593C156.706 67.8734 157.049 69.0329 156.791 69.1617C155.117 70.0636 152.025 71.9961 151.209 71.9961ZM171.393 71.9961C165.423 71.9961 160.957 67.7016 160.957 61.4746C160.957 55.4194 165.252 50.5666 171.564 50.5666C177.534 50.5666 182 54.8611 182 61.0881C182 67.1433 177.748 71.9961 171.393 71.9961ZM172.638 69.4194C174.742 69.4194 177.319 68.1311 177.319 63.1924C177.319 57.5666 174.27 53.1433 170.276 53.1433C168.215 53.1433 165.638 54.4317 165.638 59.3274C165.638 64.9961 168.687 69.4194 172.638 69.4194Z" fill="url(#paint0_linear_595_8515)"/>
<path d="M28.6579 30.2494C26.7365 32.0741 23.8404 31.9026 22.0172 29.9744C20.287 28.1542 20.2681 25.2491 22.1895 23.4289C24.0202 21.6994 27.007 21.7758 28.741 23.602C30.5664 25.5241 30.4818 28.5154 28.6579 30.2494ZM45.241 47.7301C43.3219 49.5503 40.4212 49.378 38.6827 47.5541C36.8663 45.6304 36.9434 42.8333 38.8633 41.0041C40.6872 39.2738 43.5878 39.2572 45.408 41.1764C47.1427 43.0048 47.0657 45.9953 45.241 47.7301Z" fill="url(#paint1_linear_595_8515)"/>
<path d="M38.0122 39.372C35.7274 41.5412 32.2715 41.3304 30.2186 39.1657C28.0456 36.8817 28.0365 33.4295 30.3176 31.2648C32.4868 29.2036 36.0493 29.2981 38.2102 31.5837C40.2721 33.7567 40.1769 37.3116 38.0122 39.372Z" fill="url(#paint2_linear_595_8515)"/>
<path d="M20.8635 38.189C19.4264 39.5498 17.0857 39.4032 15.7189 37.9616C14.3521 36.5154 14.4148 34.2729 15.8587 32.9084C17.298 31.54 19.635 31.506 21.001 32.9476C22.3701 34.3885 22.3074 36.8207 20.8635 38.189Z" fill="url(#paint3_linear_595_8515)"/>
<path d="M35.3435 53.4571C33.9065 54.8262 31.6602 54.765 30.2956 53.3279C28.925 51.8871 28.8948 49.541 30.3387 48.1772C31.7758 46.8051 34.2117 46.8777 35.5762 48.3155C36.9438 49.7564 36.7852 52.0933 35.3435 53.4571Z" fill="url(#paint4_linear_595_8515)"/>
<path d="M17.3824 8.62985C16.7477 7.96268 16.7756 6.83916 17.5433 6.10778C18.215 5.47084 19.3378 5.49653 19.9792 6.16822C20.7091 6.94267 20.6812 8.05713 20.0034 8.6986C19.2388 9.42999 18.116 9.39977 17.3824 8.62985Z" fill="url(#paint5_linear_595_8515)"/>
<path d="M4.97256 20.2616C4.33562 19.5899 4.36811 18.4754 5.03905 17.834C5.81124 17.1018 6.92796 17.1328 7.56943 17.8C8.29628 18.5706 8.26833 19.6934 7.49841 20.4248C6.8252 21.0617 5.70244 21.0368 4.97256 20.2616Z" fill="url(#paint6_linear_595_8515)"/>
<path d="M0.727697 14.387C0.207113 13.8408 0.232803 12.9288 0.776808 12.4082C1.40544 11.8098 2.31967 11.831 2.83874 12.3863C3.43488 13.0104 3.40844 13.9186 2.78056 14.5125C2.2358 15.033 1.32157 15.0157 0.727697 14.387Z" fill="url(#paint7_linear_595_8515)"/>
<path d="M11.9713 3.42224C11.4485 2.87144 11.4742 1.96325 12.0227 1.43813C12.6468 0.844262 13.561 0.870707 14.0816 1.41698C14.6755 2.04561 14.6498 2.95757 14.0234 3.55145C13.4779 4.07203 12.5637 4.05087 11.9713 3.42224Z" fill="url(#paint8_linear_595_8515)"/>
<path d="M3.50814 5.6897C2.86893 5.01423 2.90142 3.89071 3.56858 3.24999C4.24028 2.61758 5.36758 2.6478 6.01056 3.32328C6.73137 4.08489 6.7019 5.21219 6.03021 5.84913C5.35851 6.48607 4.23574 6.45207 3.50814 5.6897Z" fill="url(#paint9_linear_595_8515)"/>
<path d="M23.1471 15.3164C22.0523 14.1672 22.1981 12.3946 23.2574 11.392C24.4081 10.2995 26.0892 10.3418 27.1818 11.4918C28.1844 12.5541 28.1391 14.2367 26.9929 15.3255C25.9313 16.3364 24.152 16.3795 23.1471 15.3164Z" fill="url(#paint10_linear_595_8515)"/>
<path d="M9.98751 27.7968C8.89647 26.6476 8.94181 24.9604 10.091 23.8717C11.1496 22.8743 12.9266 22.8222 14.0199 23.9752C15.0203 25.0345 14.8851 26.8116 13.8265 27.8097C12.6735 28.9022 10.9909 28.8592 9.98751 27.7968Z" fill="url(#paint11_linear_595_8515)"/>
<path d="M8.56463 12.9452C7.562 11.8874 7.70404 10.1096 8.75579 9.10694C9.90953 8.0144 11.5937 8.06124 12.5948 9.12054C13.6926 10.2698 13.6496 11.9562 12.4936 13.0487C11.4373 14.0513 9.6602 14.0989 8.56463 12.9452Z" fill="url(#paint12_linear_595_8515)"/>
<path d="M15.1791 21.0744C13.8191 19.6374 13.9717 17.3042 15.4096 15.9313C16.858 14.563 19.1043 14.6272 20.4658 16.0696C21.8341 17.5067 21.8681 19.8482 20.4227 21.2165C18.9804 22.5848 16.5497 22.5168 15.1791 21.0744Z" fill="url(#paint13_linear_595_8515)"/>
<path d="M60.1234 52.0713C60.7815 52.7257 61.9043 52.7166 62.6447 51.9641C63.299 51.3052 63.29 50.1824 62.6319 49.5319C61.874 48.7877 60.7596 48.7922 60.1053 49.4541C59.3656 50.2036 59.3656 51.3226 60.1234 52.0713Z" fill="url(#paint14_linear_595_8515)"/>
<path d="M48.2286 64.2368C48.892 64.8866 50.0102 64.8821 50.6653 64.224C51.4133 63.4661 51.405 62.3479 50.7507 61.6928C49.9936 60.9531 48.8663 60.9614 48.1251 61.7102C47.4715 62.3698 47.4806 63.4926 48.2286 64.2368Z" fill="url(#paint15_linear_595_8515)"/>
<path d="M54.0168 68.6056C54.5548 69.1345 55.4667 69.1299 56.0009 68.5965C56.6122 67.9853 56.6031 67.0695 56.0651 66.5391C55.4501 65.9324 54.5382 65.9324 53.9262 66.5482C53.401 67.0861 53.401 67.9989 54.0168 68.6056Z" fill="url(#paint16_linear_595_8515)"/>
<path d="M65.2138 57.5971C65.7517 58.1223 66.669 58.1223 67.1979 57.5805C67.8091 56.9685 67.8008 56.0528 67.2666 55.5231C66.6516 54.9119 65.7351 54.9202 65.1284 55.5397C64.5987 56.0739 64.5987 56.9904 65.2138 57.5971Z" fill="url(#paint17_linear_595_8515)"/>
<path d="M62.7651 66.01C63.4323 66.6552 64.5551 66.6515 65.2086 65.9934C65.8584 65.339 65.8539 64.2072 65.192 63.5574C64.4432 62.817 63.3159 62.8208 62.6616 63.4796C62.0118 64.1377 62.0254 65.2658 62.7651 66.01Z" fill="url(#paint18_linear_595_8515)"/>
<path d="M53.5571 46.1712C54.6798 47.2902 56.4577 47.1829 57.4815 46.1501C58.5997 45.0228 58.5914 43.3401 57.4641 42.2257C56.4229 41.1973 54.741 41.2057 53.6258 42.3337C52.6013 43.3703 52.5151 45.152 53.5571 46.1712Z" fill="url(#paint19_linear_595_8515)"/>
<path d="M40.8016 59.0687C41.9289 60.187 43.6115 60.1749 44.735 59.0468C45.755 58.0057 45.8366 56.2369 44.7093 55.1186C43.6674 54.0949 41.8941 54.1893 40.8703 55.2297C39.7604 56.3616 39.7687 58.0449 40.8016 59.0687Z" fill="url(#paint20_linear_595_8515)"/>
<path d="M55.6267 60.799C56.6596 61.8273 58.4412 61.72 59.4612 60.6879C60.584 59.5515 60.5711 57.8727 59.5345 56.8489C58.4072 55.7344 56.7193 55.7382 55.6056 56.8701C54.5765 57.9022 54.4949 59.6883 55.6267 60.799Z" fill="url(#paint21_linear_595_8515)"/>
<path d="M47.626 54.0124C49.0374 55.4109 51.3789 55.3028 52.7813 53.8915C54.176 52.4801 54.1579 50.2338 52.7465 48.836C51.3351 47.4367 48.9944 47.3551 47.5996 48.771C46.1973 50.1869 46.2147 52.6176 47.626 54.0124Z" fill="url(#paint22_linear_595_8515)"/>
<path d="M36.6346 23.0066C38.055 21.6164 37.9946 19.2719 36.6089 17.856C35.2149 16.4355 32.9731 16.4106 31.5527 17.8008C30.1307 19.1865 30.0098 21.5227 31.3978 22.9432C32.788 24.3629 35.2232 24.3924 36.6346 23.0066Z" fill="url(#paint23_linear_595_8515)"/>
<path d="M51.3444 38.0604C52.7648 36.6747 52.7943 34.4246 51.4131 33.0072C50.0191 31.5829 47.6784 31.4666 46.2579 32.8523C44.8382 34.238 44.8125 36.6747 46.1982 38.0944C47.5832 39.5148 49.9239 39.4506 51.3444 38.0604Z" fill="url(#paint24_linear_595_8515)"/>
<path d="M38.7524 29.6554C36.9322 27.7318 37.0992 24.8319 39.0274 23.0155C40.8521 21.2861 43.7527 21.2687 45.5774 23.1886C47.2986 25.0125 47.2215 28.0083 45.3968 29.7332C43.4777 31.5572 40.4909 31.4756 38.7524 29.6554ZM21.2724 46.2317C19.4538 44.3126 19.6261 41.412 21.4507 39.6863C23.3699 37.8624 26.1776 37.9349 27.9962 39.8548C29.7279 41.6795 29.7453 44.5838 27.8262 46.404C25.997 48.1388 23.0057 48.0609 21.2724 46.2317Z" fill="url(#paint25_linear_595_8515)"/>
<path d="M60.3723 18.3766C61.044 17.7396 62.1713 17.7736 62.8944 18.5352C63.5313 19.2115 63.4965 20.3305 62.8339 20.9674C62.0632 21.7041 60.9405 21.6731 60.3035 20.9976C59.5714 20.2307 59.6062 19.108 60.3723 18.3766Z" fill="url(#paint26_linear_595_8515)"/>
<path d="M48.7372 5.97374C49.4081 5.3368 50.5362 5.36249 51.1731 6.03419C51.9045 6.80486 51.8705 7.91856 51.1988 8.56532C50.4327 9.29671 49.3054 9.26195 48.5778 8.49581C47.9408 7.81505 47.971 6.70135 48.7372 5.97374Z" fill="url(#paint27_linear_595_8515)"/>
<path d="M54.614 1.72232C55.1603 1.20173 56.0768 1.22742 56.5973 1.77369C57.1912 2.40232 57.1701 3.31051 56.6147 3.83109C55.9952 4.4295 55.0824 4.39928 54.4848 3.77518C53.9642 3.22438 53.9899 2.31619 54.614 1.72232Z" fill="url(#paint28_linear_595_8515)"/>
<path d="M65.5796 12.9628C66.1304 12.446 67.0431 12.4686 67.5637 13.0141C68.1531 13.6428 68.1319 14.5593 67.5849 15.0761C66.9563 15.6692 66.0443 15.6443 65.4504 15.0202C64.9336 14.4731 64.9517 13.5566 65.5796 12.9628Z" fill="url(#paint29_linear_595_8515)"/>
<path d="M63.3159 4.50284C63.9876 3.86137 65.1103 3.89159 65.748 4.56329C66.3895 5.23498 66.3548 6.36228 65.6831 6.99922C64.9169 7.7223 63.7896 7.69661 63.1527 7.02491C62.5195 6.35699 62.5497 5.22969 63.3159 4.50284Z" fill="url(#paint30_linear_595_8515)"/>
<path d="M53.6848 24.1386C54.8295 23.0505 56.6111 23.1918 57.6137 24.2504C58.7017 25.3996 58.6594 27.0777 57.5057 28.1748C56.4509 29.1774 54.7682 29.1306 53.6712 27.9806C52.6693 26.9273 52.6262 25.1412 53.6848 24.1386Z" fill="url(#paint31_linear_595_8515)"/>
<path d="M41.2044 10.9831C42.3536 9.89509 44.0362 9.93286 45.1333 11.0866C46.1359 12.1452 46.179 13.9185 45.0253 15.0155C43.9675 16.0182 42.1942 15.8807 41.1915 14.8221C40.1028 13.6684 40.1458 11.9857 41.2044 10.9831Z" fill="url(#paint32_linear_595_8515)"/>
<path d="M56.0505 9.55829C57.1136 8.55188 58.8914 8.6977 59.8986 9.75247C60.9912 10.9017 60.9398 12.5881 59.885 13.5915C58.7275 14.684 57.0448 14.6455 55.9561 13.488C54.9534 12.4332 54.9066 10.6516 56.0505 9.55829Z" fill="url(#paint33_linear_595_8515)"/>
<path d="M47.9213 16.177C49.3629 14.8178 51.6999 14.9681 53.0682 16.406C54.4328 17.8521 54.3678 20.0939 52.93 21.4584C51.4883 22.8275 49.1514 22.8608 47.7831 21.4191C46.42 19.9768 46.4842 17.5461 47.9213 16.177Z" fill="url(#paint34_linear_595_8515)"/>
<path d="M16.9276 61.1131C16.2733 61.7758 16.2838 62.8985 17.0334 63.639C17.696 64.2933 18.8195 64.2888 19.4716 63.6262C20.2181 62.8729 20.2097 61.7501 19.5509 61.0995C18.7976 60.3591 17.6786 60.3591 16.9276 61.1131Z" fill="url(#paint35_linear_595_8515)"/>
<path d="M4.76215 49.2266C4.1169 49.8855 4.1169 51.0082 4.77878 51.6588C5.53434 52.4068 6.65257 52.3985 7.30916 51.7396C8.05339 50.9871 8.04054 49.8636 7.29405 49.1148C6.63217 48.4605 5.50941 48.4741 4.76215 49.2266Z" fill="url(#paint36_linear_595_8515)"/>
<path d="M0.394135 55.0106C-0.134759 55.5531 -0.130981 56.4605 0.403202 56.9939C1.0205 57.6059 1.937 57.5969 2.46438 57.0589C3.0779 56.4476 3.06883 55.5319 2.45153 54.9244C1.91584 54.3955 1.00085 54.4001 0.394135 55.0106Z" fill="url(#paint37_linear_595_8515)"/>
<path d="M11.4088 66.2126C10.8791 66.7505 10.8814 67.6587 11.4193 68.1922C12.0328 68.7989 12.9471 68.7951 13.4782 68.2609C14.0827 67.6414 14.0827 66.7294 13.4631 66.1272C12.9282 65.5923 12.0155 65.5923 11.4088 66.2126Z" fill="url(#paint38_linear_595_8515)"/>
<path d="M2.99353 63.7674C2.34601 64.4262 2.34601 65.549 3.00864 66.2071C3.66447 66.8523 4.79177 66.8485 5.44609 66.1859C6.17974 65.4372 6.17748 64.3099 5.52391 63.6555C4.86279 63.0103 3.73776 63.0193 2.99353 63.7674Z" fill="url(#paint39_linear_595_8515)"/>
<path d="M22.8299 54.546C21.7132 55.6733 21.8167 57.4511 22.8518 58.4749C23.9851 59.5932 25.6663 59.5849 26.7807 58.4576C27.809 57.4164 27.7985 55.7345 26.6689 54.6193C25.6353 53.5902 23.8522 53.5086 22.8299 54.546Z" fill="url(#paint40_linear_595_8515)"/>
<path d="M9.93267 41.7949C8.81595 42.9268 8.82879 44.6094 9.95382 45.7239C10.995 46.7477 12.7683 46.83 13.8828 45.7027C14.9065 44.6653 14.8121 42.8875 13.7747 41.8637C12.6459 40.7492 10.9565 40.7576 9.93267 41.7949Z" fill="url(#paint41_linear_595_8515)"/>
<path d="M8.20446 56.6153C7.17388 57.6527 7.28117 59.4336 8.31478 60.4581C9.44434 61.5733 11.127 61.5643 12.1538 60.5322C13.2743 59.3913 13.266 57.7132 12.1341 56.5942C11.0983 55.5742 9.31665 55.488 8.20446 56.6153Z" fill="url(#paint42_linear_595_8515)"/>
<path d="M14.9847 48.62C13.5906 50.0359 13.6979 52.3774 15.1093 53.7706C16.523 55.173 18.7715 55.1518 20.1618 53.7404C21.5603 52.329 21.6442 49.9883 20.2328 48.5935C18.8169 47.1957 16.3832 47.2131 14.9847 48.62Z" fill="url(#paint43_linear_595_8515)"/>
<path d="M91.7197 35.6531C91.3322 35.6531 91 35.3209 91 34.9334V1.77158C91 1.38405 91.3322 1.05188 91.7197 1.05188H98.9168C99.3043 1.05188 99.6365 1.38405 99.6365 1.77158V15.3906H112.148V1.77158C112.148 1.38405 112.48 1.05188 112.868 1.05188H120.065C120.453 1.05188 120.785 1.38405 120.785 1.77158V34.9334C120.785 35.3209 120.453 35.6531 120.065 35.6531H112.868C112.48 35.6531 112.148 35.3209 112.148 34.9334V23.0306H99.6365V34.9334C99.6365 35.3209 99.3043 35.6531 98.9168 35.6531H91.7197ZM144.148 35.6531C140.826 35.6531 137.781 34.8781 135.124 33.3279C132.411 31.7778 130.252 29.5633 128.646 26.9059C127.096 24.1932 126.321 21.0929 126.321 17.7712C126.321 14.5048 127.096 11.4599 128.646 8.74719C130.252 6.03446 132.355 3.87534 135.068 2.3252C137.781 0.775068 140.826 0 144.148 0C147.414 0 150.459 0.775068 153.172 2.3252C155.884 3.87534 158.043 6.03446 159.593 8.74719C161.199 11.4599 161.974 14.5048 161.974 17.7712C161.974 21.0929 161.199 24.1378 159.593 26.8506C158.043 29.5633 155.884 31.7224 153.172 33.3279C150.459 34.8781 147.414 35.6531 144.148 35.6531ZM144.258 27.681C145.864 27.681 147.358 27.2381 148.687 26.4077C150.071 25.5219 151.178 24.3593 151.954 22.8091C152.784 21.3144 153.172 19.5981 153.172 17.7712C153.172 15.9996 152.784 14.2834 151.954 12.7886C151.178 11.2938 150.071 10.1312 148.687 9.24545C147.358 8.41502 145.864 7.97213 144.258 7.97213C142.597 7.97213 141.103 8.41502 139.719 9.24545C138.279 10.1312 137.172 11.2938 136.341 12.7886C135.511 14.3388 135.124 15.9996 135.124 17.7712C135.124 19.5981 135.511 21.3144 136.341 22.8091C137.227 24.3039 138.334 25.5219 139.719 26.3523C141.103 27.2381 142.597 27.681 144.258 27.681ZM168.23 35.6531C167.842 35.6531 167.51 35.3209 167.51 34.9334V1.77158C167.51 1.38405 167.842 1.05188 168.23 1.05188H176.202C176.479 1.05188 176.756 1.21796 176.866 1.43941L185.171 21.9233L193.42 1.43941C193.53 1.21796 193.807 1.05188 194.084 1.05188H202.056C202.444 1.05188 202.776 1.38405 202.776 1.77158V34.9334C202.776 35.3209 202.444 35.6531 202.056 35.6531H195.579C195.191 35.6531 194.859 35.3209 194.859 34.9334V17.1069L188.105 34.2691C187.994 34.4905 187.717 34.6566 187.496 34.6566H182.846C182.569 34.6566 182.292 34.4905 182.181 34.2691L175.372 17.1069V34.9334C175.372 35.3209 175.039 35.6531 174.652 35.6531H168.23ZM208.312 35.6531V2.49129C208.312 1.10724 208.589 0.83043 209.032 0.83043H233.28C233.668 0.83043 234 1.10724 234 1.49477V7.75068C234 8.13821 233.668 8.47039 233.28 8.47039H216.893V14.228H227.246C227.633 14.228 227.966 14.5602 227.966 14.9477V21.1483C227.966 21.5358 227.633 21.868 227.246 21.868H216.893V27.7917H233.225C233.612 27.7917 233.945 28.1239 233.945 28.5114V34.712C233.945 35.0995 233.612 35.4317 233.225 35.4317H209.032C208.589 35.4317 208.312 35.0995 208.312 35.6531Z" fill="url(#paint44_linear_595_8515)"/>
<defs>
<linearGradient id="paint0_linear_595_8515" x1="91" y1="55.498" x2="182" y2="55.498" gradientUnits="userSpaceOnUse">
<stop stop-color="#ED4566"/>
<stop offset="1" stop-color="#F6958F"/>
</linearGradient>
<linearGradient id="paint1_linear_595_8515" x1="20.7334" y1="35.5961" x2="46.6608" y2="35.5961" gradientUnits="userSpaceOnUse">
<stop stop-color="#ED4566"/>
<stop offset="1" stop-color="#F6958F"/>
</linearGradient>
<linearGradient id="paint2_linear_595_8515" x1="28.5977" y1="35.3442" x2="39.6981" y2="35.3442" gradientUnits="userSpaceOnUse">
<stop stop-color="#ED4566"/>
<stop offset="1" stop-color="#F6958F"/>
</linearGradient>
<linearGradient id="paint3_linear_595_8515" x1="14.7334" y1="35.5026" x2="21.9885" y2="35.5026" gradientUnits="userSpaceOnUse">
<stop stop-color="#ED4566"/>
<stop offset="1" stop-color="#F6958F"/>
</linearGradient>
<linearGradient id="paint4_linear_595_8515" x1="29.2617" y1="50.8186" x2="36.5184" y2="50.8186" gradientUnits="userSpaceOnUse">
<stop stop-color="#ED4566"/>
<stop offset="1" stop-color="#F6958F"/>
</linearGradient>
<linearGradient id="paint5_linear_595_8515" x1="16.9346" y1="7.43728" x2="20.5192" y2="7.43728" gradientUnits="userSpaceOnUse">
<stop stop-color="#ED4566"/>
<stop offset="1" stop-color="#F6958F"/>
</linearGradient>
<linearGradient id="paint6_linear_595_8515" x1="4.51465" y1="19.0837" x2="8.09582" y2="19.0837" gradientUnits="userSpaceOnUse">
<stop stop-color="#ED4566"/>
<stop offset="1" stop-color="#F6958F"/>
</linearGradient>
<linearGradient id="paint7_linear_595_8515" x1="0.352539" y1="13.4235" x2="3.2692" y2="13.4235" gradientUnits="userSpaceOnUse">
<stop stop-color="#ED4566"/>
<stop offset="1" stop-color="#F6958F"/>
</linearGradient>
<linearGradient id="paint8_linear_595_8515" x1="11.5947" y1="2.45982" x2="14.5107" y2="2.45982" gradientUnits="userSpaceOnUse">
<stop stop-color="#ED4566"/>
<stop offset="1" stop-color="#F6958F"/>
</linearGradient>
<linearGradient id="paint9_linear_595_8515" x1="3.04785" y1="4.54604" x2="6.54258" y2="4.54604" gradientUnits="userSpaceOnUse">
<stop stop-color="#ED4566"/>
<stop offset="1" stop-color="#F6958F"/>
</linearGradient>
<linearGradient id="paint10_linear_595_8515" x1="22.3916" y1="13.3494" x2="27.8955" y2="13.3494" gradientUnits="userSpaceOnUse">
<stop stop-color="#ED4566"/>
<stop offset="1" stop-color="#F6958F"/>
</linearGradient>
<linearGradient id="paint11_linear_595_8515" x1="9.19824" y1="25.8642" x2="14.7002" y2="25.8642" gradientUnits="userSpaceOnUse">
<stop stop-color="#ED4566"/>
<stop offset="1" stop-color="#F6958F"/>
</linearGradient>
<linearGradient id="paint12_linear_595_8515" x1="7.88477" y1="11.0562" x2="13.3902" y2="11.0562" gradientUnits="userSpaceOnUse">
<stop stop-color="#ED4566"/>
<stop offset="1" stop-color="#F6958F"/>
</linearGradient>
<linearGradient id="paint13_linear_595_8515" x1="14.2402" y1="18.573" x2="21.4994" y2="18.573" gradientUnits="userSpaceOnUse">
<stop stop-color="#ED4566"/>
<stop offset="1" stop-color="#F6958F"/>
</linearGradient>
<linearGradient id="paint14_linear_595_8515" x1="59.5527" y1="50.7558" x2="63.1305" y2="50.7558" gradientUnits="userSpaceOnUse">
<stop stop-color="#ED4566"/>
<stop offset="1" stop-color="#F6958F"/>
</linearGradient>
<linearGradient id="paint15_linear_595_8515" x1="47.6504" y1="62.9321" x2="51.2342" y2="62.9321" gradientUnits="userSpaceOnUse">
<stop stop-color="#ED4566"/>
<stop offset="1" stop-color="#F6958F"/>
</linearGradient>
<linearGradient id="paint16_linear_595_8515" x1="53.543" y1="67.5423" x2="56.4642" y2="67.5423" gradientUnits="userSpaceOnUse">
<stop stop-color="#ED4566"/>
<stop offset="1" stop-color="#F6958F"/>
</linearGradient>
<linearGradient id="paint17_linear_595_8515" x1="64.7412" y1="56.5294" x2="67.6621" y2="56.5294" gradientUnits="userSpaceOnUse">
<stop stop-color="#ED4566"/>
<stop offset="1" stop-color="#F6958F"/>
</linearGradient>
<linearGradient id="paint18_linear_595_8515" x1="62.1914" y1="64.7419" x2="65.6922" y2="64.7419" gradientUnits="userSpaceOnUse">
<stop stop-color="#ED4566"/>
<stop offset="1" stop-color="#F6958F"/>
</linearGradient>
<linearGradient id="paint19_linear_595_8515" x1="52.8154" y1="44.2194" x2="58.3149" y2="44.2194" gradientUnits="userSpaceOnUse">
<stop stop-color="#ED4566"/>
<stop offset="1" stop-color="#F6958F"/>
</linearGradient>
<linearGradient id="paint20_linear_595_8515" x1="40.0322" y1="57.1492" x2="45.5275" y2="57.1492" gradientUnits="userSpaceOnUse">
<stop stop-color="#ED4566"/>
<stop offset="1" stop-color="#F6958F"/>
</linearGradient>
<linearGradient id="paint21_linear_595_8515" x1="54.8057" y1="58.7677" x2="60.3078" y2="58.7677" gradientUnits="userSpaceOnUse">
<stop stop-color="#ED4566"/>
<stop offset="1" stop-color="#F6958F"/>
</linearGradient>
<linearGradient id="paint22_linear_595_8515" x1="46.5576" y1="51.3772" x2="53.8163" y2="51.3772" gradientUnits="userSpaceOnUse">
<stop stop-color="#ED4566"/>
<stop offset="1" stop-color="#F6958F"/>
</linearGradient>
<linearGradient id="paint23_linear_595_8515" x1="30.4189" y1="20.4007" x2="37.6743" y2="20.4007" gradientUnits="userSpaceOnUse">
<stop stop-color="#ED4566"/>
<stop offset="1" stop-color="#F6958F"/>
</linearGradient>
<linearGradient id="paint24_linear_595_8515" x1="45.1758" y1="35.5026" x2="52.4297" y2="35.5026" gradientUnits="userSpaceOnUse">
<stop stop-color="#ED4566"/>
<stop offset="1" stop-color="#F6958F"/>
</linearGradient>
<linearGradient id="paint25_linear_595_8515" x1="19.9922" y1="34.6945" x2="46.8186" y2="34.6945" gradientUnits="userSpaceOnUse">
<stop stop-color="#ED4566"/>
<stop offset="1" stop-color="#F6958F"/>
</linearGradient>
<linearGradient id="paint26_linear_595_8515" x1="59.7754" y1="19.7205" x2="63.3521" y2="19.7205" gradientUnits="userSpaceOnUse">
<stop stop-color="#ED4566"/>
<stop offset="1" stop-color="#F6958F"/>
</linearGradient>
<linearGradient id="paint27_linear_595_8515" x1="48.1289" y1="7.30276" x2="51.7121" y2="7.30276" gradientUnits="userSpaceOnUse">
<stop stop-color="#ED4566"/>
<stop offset="1" stop-color="#F6958F"/>
</linearGradient>
<linearGradient id="paint28_linear_595_8515" x1="54.1182" y1="2.80478" x2="57.037" y2="2.80478" gradientUnits="userSpaceOnUse">
<stop stop-color="#ED4566"/>
<stop offset="1" stop-color="#F6958F"/>
</linearGradient>
<linearGradient id="paint29_linear_595_8515" x1="65.084" y1="14.0473" x2="68.0004" y2="14.0473" gradientUnits="userSpaceOnUse">
<stop stop-color="#ED4566"/>
<stop offset="1" stop-color="#F6958F"/>
</linearGradient>
<linearGradient id="paint30_linear_595_8515" x1="62.707" y1="5.78757" x2="66.2087" y2="5.78757" gradientUnits="userSpaceOnUse">
<stop stop-color="#ED4566"/>
<stop offset="1" stop-color="#F6958F"/>
</linearGradient>
<linearGradient id="paint31_linear_595_8515" x1="52.9053" y1="26.1371" x2="58.4013" y2="26.1371" gradientUnits="userSpaceOnUse">
<stop stop-color="#ED4566"/>
<stop offset="1" stop-color="#F6958F"/>
</linearGradient>
<linearGradient id="paint32_linear_595_8515" x1="40.3926" y1="12.945" x2="45.8881" y2="12.945" gradientUnits="userSpaceOnUse">
<stop stop-color="#ED4566"/>
<stop offset="1" stop-color="#F6958F"/>
</linearGradient>
<linearGradient id="paint33_linear_595_8515" x1="55.1982" y1="11.6308" x2="60.6972" y2="11.6308" gradientUnits="userSpaceOnUse">
<stop stop-color="#ED4566"/>
<stop offset="1" stop-color="#F6958F"/>
</linearGradient>
<linearGradient id="paint34_linear_595_8515" x1="46.8008" y1="18.8653" x2="54.0514" y2="18.8653" gradientUnits="userSpaceOnUse">
<stop stop-color="#ED4566"/>
<stop offset="1" stop-color="#F6958F"/>
</linearGradient>
<linearGradient id="paint35_linear_595_8515" x1="16.4531" y1="62.3362" x2="20.0386" y2="62.3362" gradientUnits="userSpaceOnUse">
<stop stop-color="#ED4566"/>
<stop offset="1" stop-color="#F6958F"/>
</linearGradient>
<linearGradient id="paint36_linear_595_8515" x1="4.28027" y1="50.4346" x2="7.86067" y2="50.4346" gradientUnits="userSpaceOnUse">
<stop stop-color="#ED4566"/>
<stop offset="1" stop-color="#F6958F"/>
</linearGradient>
<linearGradient id="paint37_linear_595_8515" x1="0" y1="55.9987" x2="2.91955" y2="55.9987" gradientUnits="userSpaceOnUse">
<stop stop-color="#ED4566"/>
<stop offset="1" stop-color="#F6958F"/>
</linearGradient>
<linearGradient id="paint38_linear_595_8515" x1="11.0137" y1="67.1954" x2="13.9297" y2="67.1954" gradientUnits="userSpaceOnUse">
<stop stop-color="#ED4566"/>
<stop offset="1" stop-color="#F6958F"/>
</linearGradient>
<linearGradient id="paint39_linear_595_8515" x1="2.50977" y1="64.9375" x2="6.00559" y2="64.9375" gradientUnits="userSpaceOnUse">
<stop stop-color="#ED4566"/>
<stop offset="1" stop-color="#F6958F"/>
</linearGradient>
<linearGradient id="paint40_linear_595_8515" x1="22.0332" y1="56.5575" x2="27.5347" y2="56.5575" gradientUnits="userSpaceOnUse">
<stop stop-color="#ED4566"/>
<stop offset="1" stop-color="#F6958F"/>
</linearGradient>
<linearGradient id="paint41_linear_595_8515" x1="9.10254" y1="43.7712" x2="14.6035" y2="43.7712" gradientUnits="userSpaceOnUse">
<stop stop-color="#ED4566"/>
<stop offset="1" stop-color="#F6958F"/>
</linearGradient>
<linearGradient id="paint42_linear_595_8515" x1="7.4834" y1="58.5499" x2="12.9886" y2="58.5499" gradientUnits="userSpaceOnUse">
<stop stop-color="#ED4566"/>
<stop offset="1" stop-color="#F6958F"/>
</linearGradient>
<linearGradient id="paint43_linear_595_8515" x1="13.9932" y1="51.1828" x2="21.2518" y2="51.1828" gradientUnits="userSpaceOnUse">
<stop stop-color="#ED4566"/>
<stop offset="1" stop-color="#F6958F"/>
</linearGradient>
<linearGradient id="paint44_linear_595_8515" x1="91" y1="17.8266" x2="234" y2="17.8266" gradientUnits="userSpaceOnUse">
<stop stop-color="#ED4566"/>
<stop offset="1" stop-color="#F6958F"/>
</linearGradient>
</defs>
</svg>